<svg width="210" height="114" viewBox="0 0 210 114" fill="none" xmlns="http://www.w3.org/2000/svg">
<path d="M15.7588 80.17C17.7138 80.17 19.3798 79.473 20.4848 78.181L19.0568 76.821C18.1898 77.773 17.1188 78.232 15.8778 78.232C13.4128 78.232 11.6278 76.498 11.6278 74.05C11.6278 71.602 13.4128 69.868 15.8778 69.868C17.1188 69.868 18.1898 70.327 19.0568 71.262L20.4848 69.919C19.3798 68.627 17.7138 67.93 15.7758 67.93C12.1208 67.93 9.40083 70.497 9.40083 74.05C9.40083 77.603 12.1208 80.17 15.7588 80.17ZM25.7834 70.82C24.3214 70.82 22.9104 71.194 21.9414 71.942L22.7744 73.489C23.4544 72.928 24.5084 72.588 25.5284 72.588C27.0414 72.588 27.7894 73.319 27.7894 74.56V74.696H25.4434C22.6894 74.696 21.6694 75.886 21.6694 77.399C21.6694 78.98 22.9784 80.119 25.0524 80.119C26.4124 80.119 27.3984 79.677 27.9084 78.895V80H29.9144V74.679C29.9144 72.061 28.4014 70.82 25.7834 70.82ZM25.4944 78.572C24.4064 78.572 23.7604 78.079 23.7604 77.314C23.7604 76.651 24.1514 76.107 25.5964 76.107H27.7894V77.161C27.4324 78.096 26.5314 78.572 25.4944 78.572ZM34.6646 72.248V70.922H32.6416V80H34.7666V75.597C34.7666 73.744 35.7866 72.792 37.4016 72.792C37.5546 72.792 37.7076 72.809 37.8946 72.843V70.82C36.3816 70.82 35.2766 71.296 34.6646 72.248ZM46.6012 70.922V72.129C45.8532 71.228 44.7312 70.82 43.4562 70.82C40.8552 70.82 38.8662 72.554 38.8662 75.189C38.8662 77.824 40.8552 79.592 43.4562 79.592C44.6802 79.592 45.7512 79.201 46.4992 78.385V78.861C46.4992 80.697 45.6152 81.615 43.6092 81.615C42.3512 81.615 41.0592 81.19 40.2602 80.527L39.3082 82.125C40.3452 82.975 42.0282 83.417 43.7282 83.417C46.9072 83.417 48.6242 81.921 48.6242 78.623V70.922H46.6012ZM43.7792 77.79C42.1642 77.79 41.0082 76.736 41.0082 75.189C41.0082 73.659 42.1642 72.622 43.7792 72.622C45.3772 72.622 46.5332 73.659 46.5332 75.189C46.5332 76.736 45.3772 77.79 43.7792 77.79ZM54.8859 70.82C53.4239 70.82 52.0129 71.194 51.0439 71.942L51.8769 73.489C52.5569 72.928 53.6109 72.588 54.6309 72.588C56.1439 72.588 56.8919 73.319 56.8919 74.56V74.696H54.5459C51.7919 74.696 50.7719 75.886 50.7719 77.399C50.7719 78.98 52.0809 80.119 54.1549 80.119C55.5149 80.119 56.5009 79.677 57.0109 78.895V80H59.0169V74.679C59.0169 72.061 57.5039 70.82 54.8859 70.82ZM54.5969 78.572C53.5089 78.572 52.8629 78.079 52.8629 77.314C52.8629 76.651 53.2539 76.107 54.6989 76.107H56.8919V77.161C56.5349 78.096 55.6339 78.572 54.5969 78.572ZM63.7671 72.248V70.922H61.7441V80H63.8691V75.597C63.8691 73.744 64.8891 72.792 66.5041 72.792C66.6571 72.792 66.8101 72.809 66.9971 72.843V70.82C65.4841 70.82 64.3791 71.296 63.7671 72.248ZM77.27 68.984C77.712 68.984 78.12 69.137 78.443 69.358L79.038 67.76C78.562 67.42 77.848 67.267 77.117 67.267C75.009 67.267 73.87 68.508 73.87 70.412V70.99H72.374V72.69H73.87V80H75.995V72.69H78.426V70.99H75.927V70.446C75.927 69.477 76.386 68.984 77.27 68.984ZM83.8036 80.119C86.6256 80.119 88.6486 78.181 88.6486 75.461C88.6486 72.741 86.6256 70.82 83.8036 70.82C81.0156 70.82 78.9756 72.741 78.9756 75.461C78.9756 78.181 81.0156 80.119 83.8036 80.119ZM83.8036 78.3C82.2736 78.3 81.1176 77.195 81.1176 75.461C81.1176 73.727 82.2736 72.622 83.8036 72.622C85.3506 72.622 86.5066 73.727 86.5066 75.461C86.5066 77.195 85.3506 78.3 83.8036 78.3ZM95.5426 77.994C95.2196 78.249 94.7946 78.368 94.3526 78.368C93.5366 78.368 93.0946 77.892 93.0946 77.008V72.69H95.5256V70.99H93.0946V68.916H90.9696V70.99H89.4736V72.69H90.9696V77.059C90.9696 79.065 92.1086 80.119 94.0976 80.119C94.8626 80.119 95.6276 79.915 96.1376 79.507L95.5426 77.994ZM101.667 80.119C104.489 80.119 106.512 78.181 106.512 75.461C106.512 72.741 104.489 70.82 101.667 70.82C98.8789 70.82 96.8389 72.741 96.8389 75.461C96.8389 78.181 98.8789 80.119 101.667 80.119ZM101.667 78.3C100.137 78.3 98.9809 77.195 98.9809 75.461C98.9809 73.727 100.137 72.622 101.667 72.622C103.214 72.622 104.37 73.727 104.37 75.461C104.37 77.195 103.214 78.3 101.667 78.3ZM111.349 80.119C113.899 80.119 115.463 79.014 115.463 77.314C115.463 73.761 109.853 75.393 109.853 73.557C109.853 72.962 110.465 72.537 111.757 72.537C112.624 72.537 113.491 72.707 114.358 73.217L115.174 71.602C114.358 71.109 112.981 70.82 111.774 70.82C109.326 70.82 107.779 71.942 107.779 73.659C107.779 77.28 113.389 75.648 113.389 77.382C113.389 78.011 112.828 78.385 111.485 78.385C110.346 78.385 109.122 78.011 108.323 77.484L107.507 79.099C108.323 79.677 109.836 80.119 111.349 80.119ZM128.757 67.386V72.044C128.043 71.211 127.006 70.82 125.833 70.82C123.198 70.82 121.243 72.639 121.243 75.461C121.243 78.283 123.198 80.119 125.833 80.119C127.074 80.119 128.128 79.694 128.842 78.827V80H130.882V67.386H128.757ZM126.088 78.3C124.558 78.3 123.385 77.195 123.385 75.461C123.385 73.727 124.558 72.622 126.088 72.622C127.618 72.622 128.791 73.727 128.791 75.461C128.791 77.195 127.618 78.3 126.088 78.3ZM142.196 75.512C142.196 72.673 140.258 70.82 137.606 70.82C134.903 70.82 132.914 72.758 132.914 75.461C132.914 78.164 134.886 80.119 137.929 80.119C139.493 80.119 140.768 79.609 141.584 78.64L140.445 77.331C139.799 77.994 139 78.317 137.98 78.317C136.399 78.317 135.294 77.467 135.039 76.141H142.162C142.179 75.937 142.196 75.682 142.196 75.512ZM137.606 72.52C139 72.52 140.003 73.421 140.173 74.73H135.022C135.226 73.404 136.229 72.52 137.606 72.52ZM147.042 80.119C149.592 80.119 151.156 79.014 151.156 77.314C151.156 73.761 145.546 75.393 145.546 73.557C145.546 72.962 146.158 72.537 147.45 72.537C148.317 72.537 149.184 72.707 150.051 73.217L150.867 71.602C150.051 71.109 148.674 70.82 147.467 70.82C145.019 70.82 143.472 71.942 143.472 73.659C143.472 77.28 149.082 75.648 149.082 77.382C149.082 78.011 148.521 78.385 147.178 78.385C146.039 78.385 144.815 78.011 144.016 77.484L143.2 79.099C144.016 79.677 145.529 80.119 147.042 80.119ZM159.752 67.386V72.044C159.038 71.211 158.001 70.82 156.828 70.82C154.193 70.82 152.238 72.639 152.238 75.461C152.238 78.283 154.193 80.119 156.828 80.119C158.069 80.119 159.123 79.694 159.837 78.827V80H161.877V67.386H159.752ZM157.083 78.3C155.553 78.3 154.38 77.195 154.38 75.461C154.38 73.727 155.553 72.622 157.083 72.622C158.613 72.622 159.786 73.727 159.786 75.461C159.786 77.195 158.613 78.3 157.083 78.3ZM173.191 75.512C173.191 72.673 171.253 70.82 168.601 70.82C165.898 70.82 163.909 72.758 163.909 75.461C163.909 78.164 165.881 80.119 168.924 80.119C170.488 80.119 171.763 79.609 172.579 78.64L171.44 77.331C170.794 77.994 169.995 78.317 168.975 78.317C167.394 78.317 166.289 77.467 166.034 76.141H173.157C173.174 75.937 173.191 75.682 173.191 75.512ZM168.601 72.52C169.995 72.52 170.998 73.421 171.168 74.73H166.017C166.221 73.404 167.224 72.52 168.601 72.52ZM191.389 70.82C189.944 70.82 188.72 71.398 187.989 72.333C187.36 71.313 186.255 70.82 184.929 70.82C183.688 70.82 182.634 71.262 181.954 72.078V70.922H179.931V80H182.056V75.393C182.056 73.591 183.008 72.673 184.419 72.673C185.711 72.673 186.459 73.455 186.459 75.07V80H188.584V75.393C188.584 73.591 189.553 72.673 190.947 72.673C192.239 72.673 192.987 73.455 192.987 75.07V80H195.112V74.798C195.112 72.061 193.582 70.82 191.389 70.82ZM198.898 69.426C199.697 69.426 200.258 68.848 200.258 68.1C200.258 67.403 199.68 66.876 198.898 66.876C198.116 66.876 197.538 67.437 197.538 68.151C197.538 68.865 198.116 69.426 198.898 69.426ZM197.827 80H199.952V70.922H197.827V80ZM66.0282 94.386V99.044C65.3142 98.211 64.2772 97.82 63.1042 97.82C60.4692 97.82 58.5142 99.639 58.5142 102.461C58.5142 105.283 60.4692 107.119 63.1042 107.119C64.3452 107.119 65.3992 106.694 66.1132 105.827V107H68.1532V94.386H66.0282ZM63.3592 105.3C61.8292 105.3 60.6562 104.195 60.6562 102.461C60.6562 100.727 61.8292 99.622 63.3592 99.622C64.8892 99.622 66.0622 100.727 66.0622 102.461C66.0622 104.195 64.8892 105.3 63.3592 105.3ZM72.0041 96.426C72.8031 96.426 73.3641 95.848 73.3641 95.1C73.3641 94.403 72.7861 93.876 72.0041 93.876C71.2221 93.876 70.6441 94.437 70.6441 95.151C70.6441 95.865 71.2221 96.426 72.0041 96.426ZM70.9331 107H73.0581V97.922H70.9331V107ZM78.6521 107.119C81.2021 107.119 82.7661 106.014 82.7661 104.314C82.7661 100.761 77.1561 102.393 77.1561 100.557C77.1561 99.962 77.7681 99.537 79.0601 99.537C79.9271 99.537 80.7941 99.707 81.6611 100.217L82.4771 98.602C81.6611 98.109 80.2841 97.82 79.0771 97.82C76.6291 97.82 75.0821 98.942 75.0821 100.659C75.0821 104.28 80.6921 102.648 80.6921 104.382C80.6921 105.011 80.1311 105.385 78.7881 105.385C77.6491 105.385 76.4251 105.011 75.6261 104.484L74.8101 106.099C75.6261 106.677 77.1391 107.119 78.6521 107.119ZM89.6281 97.82C88.3871 97.82 87.3331 98.245 86.6191 99.112V97.922H84.5961V110.298H86.7211V105.895C87.4521 106.728 88.4721 107.119 89.6281 107.119C92.2801 107.119 94.2351 105.283 94.2351 102.461C94.2351 99.656 92.2801 97.82 89.6281 97.82ZM89.3901 105.3C87.8601 105.3 86.6871 104.195 86.6871 102.461C86.6871 100.727 87.8601 99.622 89.3901 99.622C90.9201 99.622 92.0761 100.727 92.0761 102.461C92.0761 104.195 90.9201 105.3 89.3901 105.3ZM100.33 107.119C103.152 107.119 105.175 105.181 105.175 102.461C105.175 99.741 103.152 97.82 100.33 97.82C97.5424 97.82 95.5024 99.741 95.5024 102.461C95.5024 105.181 97.5424 107.119 100.33 107.119ZM100.33 105.3C98.8004 105.3 97.6444 104.195 97.6444 102.461C97.6444 100.727 98.8004 99.622 100.33 99.622C101.877 99.622 103.033 100.727 103.033 102.461C103.033 104.195 101.877 105.3 100.33 105.3ZM110.012 107.119C112.562 107.119 114.126 106.014 114.126 104.314C114.126 100.761 108.516 102.393 108.516 100.557C108.516 99.962 109.128 99.537 110.42 99.537C111.287 99.537 112.154 99.707 113.021 100.217L113.837 98.602C113.021 98.109 111.644 97.82 110.437 97.82C107.989 97.82 106.442 98.942 106.442 100.659C106.442 104.28 112.052 102.648 112.052 104.382C112.052 105.011 111.491 105.385 110.148 105.385C109.009 105.385 107.785 105.011 106.986 104.484L106.17 106.099C106.986 106.677 108.499 107.119 110.012 107.119ZM117.028 96.426C117.827 96.426 118.388 95.848 118.388 95.1C118.388 94.403 117.81 93.876 117.028 93.876C116.246 93.876 115.668 94.437 115.668 95.151C115.668 95.865 116.246 96.426 117.028 96.426ZM115.957 107H118.082V97.922H115.957V107ZM125.733 104.994C125.41 105.249 124.985 105.368 124.543 105.368C123.727 105.368 123.285 104.892 123.285 104.008V99.69H125.716V97.99H123.285V95.916H121.16V97.99H119.664V99.69H121.16V104.059C121.16 106.065 122.299 107.119 124.288 107.119C125.053 107.119 125.818 106.915 126.328 106.507L125.733 104.994ZM129.147 96.426C129.946 96.426 130.507 95.848 130.507 95.1C130.507 94.403 129.929 93.876 129.147 93.876C128.365 93.876 127.787 94.437 127.787 95.151C127.787 95.865 128.365 96.426 129.147 96.426ZM128.076 107H130.201V97.922H128.076V107ZM139.45 97.922L136.543 104.654L133.721 97.922H131.511L135.404 107H137.597L141.49 97.922H139.45ZM146.649 107.119C149.471 107.119 151.494 105.181 151.494 102.461C151.494 99.741 149.471 97.82 146.649 97.82C143.861 97.82 141.821 99.741 141.821 102.461C141.821 105.181 143.861 107.119 146.649 107.119ZM146.649 105.3C145.119 105.3 143.963 104.195 143.963 102.461C143.963 100.727 145.119 99.622 146.649 99.622C148.196 99.622 149.352 100.727 149.352 102.461C149.352 104.195 148.196 105.3 146.649 105.3Z" fill="#535353"/>
<path d="M104.999 26.2208L113.839 35.0583L110.891 38.0062L107.082 34.1979V45.8333H102.916V34.1937L99.1074 38.0062L96.1595 35.0583L104.999 26.2208ZM104.999 4.16663C108.576 4.1668 112.028 5.48145 114.699 7.86062C117.371 10.2398 119.074 13.5176 119.487 17.0708C122.079 17.7777 124.34 19.3731 125.875 21.5781C127.411 23.7832 128.122 26.4576 127.886 29.1341C127.649 31.8106 126.48 34.3188 124.581 36.2204C122.683 38.122 120.177 39.2961 117.501 39.5375V35.3416C118.46 35.2047 119.382 34.8782 120.213 34.3811C121.044 33.8841 121.768 33.2265 122.342 32.4466C122.916 31.6668 123.329 30.7804 123.557 29.8392C123.785 28.898 123.823 27.9208 123.669 26.9647C123.515 26.0086 123.173 25.0927 122.661 24.2705C122.149 23.4483 121.479 22.7362 120.689 22.1759C119.899 21.6156 119.006 21.2183 118.061 21.0071C117.115 20.7959 116.138 20.775 115.184 20.9458C115.511 19.4268 115.493 17.8541 115.133 16.3428C114.773 14.8315 114.079 13.4199 113.102 12.2115C112.126 11.003 110.892 10.0283 109.49 9.3587C108.088 8.68909 106.554 8.34156 105 8.34156C103.446 8.34156 101.912 8.68909 100.511 9.3587C99.1086 10.0283 97.8742 11.003 96.8978 12.2115C95.9214 13.4199 95.2276 14.8315 94.8673 16.3428C94.5071 17.8541 94.4894 19.4268 94.8157 20.9458C92.915 20.5889 90.9503 21.0016 89.3539 22.0932C87.7575 23.1848 86.6602 24.8659 86.3032 26.7666C85.9463 28.6673 86.359 30.632 87.4506 32.2284C88.5423 33.8248 90.2233 34.9222 92.124 35.2791L92.499 35.3416V39.5375C89.8229 39.2965 87.3166 38.1227 85.4181 36.2212C83.5196 34.3197 82.3497 31.8115 82.113 29.135C81.8762 26.4585 82.5875 23.7839 84.1227 21.5787C85.6579 19.3734 87.9193 17.7778 90.5115 17.0708C90.9234 13.5174 92.627 10.2394 95.2982 7.8601C97.9694 5.48083 101.422 4.16634 104.999 4.16663Z" fill="#808080"/>
</svg>
